# xmcd
#
# Track frame offsets:
#	150
#	6403
#	31783
#	52995
#	70027
#	90996
#	113011
#	132894
#	149471
#	171714
#	174081
#	194374
#	215289
#	234239
#	254767
#	275867
#	295272
#
# Disc length: 4237 seconds
#
# Revision: 0
# Processed by: cddbd v1.5.2PL0 Copyright (c) Steve Scherf et al.
# Submitted via: EasyCDDAExtractor 10.2.0.1
#
DISCID=f6108b11
DTITLE=김범수 - 2집
DYEAR=2002
DGENRE=째징쩔채
TTITLE0=Once upon a day
TTITLE1=하루 (M/V Version)
TTITLE2=그런 이유라는 걸
TTITLE3=그대 내게 다시
TTITLE4=눈물과 바꾼 사랑
TTITLE5=별이 진다네
TTITLE6=잊지마
TTITLE7=사랑이 저만치 가네
TTITLE8=아마도
TTITLE9=Rainly Day
TTITLE10=수요일에는 빨간 장미를
TTITLE11=그대와 영원히
TTITLE12=하루만 더
TTITLE13=비처럼 음악처럼
TTITLE14=하루(Original Version)
TTITLE15=사랑일 뿐야(Bonus Track)
TTITLE16=약속(Bonus Track)
EXTD=YEAR: 2002\n
EXTT0=
EXTT1=
EXTT2=
EXTT3=
EXTT4=
EXTT5=
EXTT6=
EXTT7=
EXTT8=
EXTT9=
EXTT10=
EXTT11=
EXTT12=
EXTT13=
EXTT14=
EXTT15=
EXTT16=
PLAYORDER=
